<?xml version="1.0" encoding="UTF-8" standalone="no"?>
<!-- Created with Inkscape (http://www.inkscape.org/) -->

<svg
   width="10.253288in"
   height="10.253287in"
   viewBox="0 0 260.43353 260.4335"
   version="1.1"
   id="svg1"
   xml:space="preserve"
   sodipodi:docname="MetrANOVA-2.0.svg"
   inkscape:version="1.3 (0e150ed, 2023-07-21)"
   inkscape:export-filename="MetrANOVA-2.0.png"
   inkscape:export-xdpi="96"
   inkscape:export-ydpi="96"
   xmlns:inkscape="http://www.inkscape.org/namespaces/inkscape"
   xmlns:sodipodi="http://sodipodi.sourceforge.net/DTD/sodipodi-0.dtd"
   xmlns="http://www.w3.org/2000/svg"
   xmlns:svg="http://www.w3.org/2000/svg"><sodipodi:namedview
     id="namedview1"
     pagecolor="#ffffff"
     bordercolor="#000000"
     borderopacity="0.25"
     inkscape:showpageshadow="2"
     inkscape:pageopacity="0.0"
     inkscape:pagecheckerboard="0"
     inkscape:deskcolor="#d1d1d1"
     inkscape:document-units="mm"
     inkscape:zoom="0.15"
     inkscape:cx="1046.6667"
     inkscape:cy="6173.3333"
     inkscape:window-width="1576"
     inkscape:window-height="945"
     inkscape:window-x="2116"
     inkscape:window-y="65"
     inkscape:window-maximized="0"
     inkscape:current-layer="layer1"
     showguides="true"
     inkscape:export-bgcolor="#ffffffff" /><defs
     id="defs1" /><g
     inkscape:label="Layer 1"
     inkscape:groupmode="layer"
     id="layer1"
     transform="translate(-298.11935,-247.05917)"><g
       id="g56"
       transform="translate(237.81728,-174.40669)"
       inkscape:export-filename="metranova logos/metranova_icon_light.png"
       inkscape:export-xdpi="96"
       inkscape:export-ydpi="96"><circle
         style="fill:#fae765;fill-opacity:1;stroke:none;stroke-width:0.290946;stroke-dasharray:none;stroke-opacity:1"
         id="path56-2"
         cx="190.51881"
         cy="551.68262"
         r="130.21675" /><path
         id="path2-7-5-48-4-9-0-6-1"
         style="fill:#6089b3;fill-opacity:1;stroke:none;stroke-width:0.386461;stroke-opacity:1"
         d="m 190.65748,449.57595 a 102.24493,102.24493 0 0 0 -45.29146,10.7786 c 15.07913,11.8859 27.09318,26.8286 35.45029,43.5819 21.83139,-16.1421 48.77486,-25.4703 77.40854,-25.2227 l -7.6e-4,-7e-4 c 1.3358,0.012 2.68173,0.083 4.02463,0.1366 a 102.24493,102.24493 0 0 0 -71.59124,-29.2737 z m -58.99802,19.0158 a 102.24493,102.24493 0 0 0 -7.813,5.8498 c -0.1097,0.095 -0.216,0.1933 -0.32533,0.2883 a 102.24493,102.24493 0 0 0 -9.99516,9.9952 c -0.0732,0.084 -0.14973,0.1655 -0.22267,0.2498 a 102.24493,102.24493 0 0 0 -8.5097,11.3682 c -0.0925,0.143 -0.18382,0.2867 -0.27551,0.4302 a 102.24493,102.24493 0 0 0 -6.829495,12.5072 c -0.0272,0.059 -0.0516,0.1196 -0.0784,0.1789 a 102.24493,102.24493 0 0 0 -4.96513,13.3125 c -0.0435,0.1468 -0.0907,0.2924 -0.13365,0.4393 a 102.24493,102.24493 0 0 0 -0.75254,3.4608 c 16.539605,-6.6819 34.303815,-9.8743 52.167025,-9.3196 h 7.6e-4 c 3.24246,0.1008 6.48831,0.3254 9.73022,0.6733 h 0.0117 0.0117 c 3.27806,0.3626 6.50959,0.8721 9.70683,1.4741 1.87821,-2.0012 3.79743,-3.9618 5.79616,-5.8377 -8.24103,-17.7357 -21.04133,-33.356 -37.52376,-45.0718 z m 126.42575,24.7253 c -26.64166,-0.2438 -51.57288,8.8198 -71.36706,24.3901 0.43883,1.2158 0.83326,2.4477 1.22732,3.6797 0.0589,-3e-4 0.11699,0 0.17587,0 h 0.0117 0.009 c 43.00248,0.013 81.41252,25.1452 99.17794,63.1087 a 102.24493,102.24493 0 0 0 1.35111,-3.6216 c 0.0437,-0.1472 0.0906,-0.2934 0.13365,-0.4408 a 102.24493,102.24493 0 0 0 3.00489,-13.8152 c 0.0257,-0.176 0.0485,-0.3523 0.0732,-0.5284 a 102.24493,102.24493 0 0 0 1.01823,-14.2349 c 0,-0.01 7.6e-4,-0.02 7.6e-4,-0.03 0,-1.7394 -0.047,-3.4765 -0.13584,-5.2135 a 102.24493,102.24493 0 0 0 -0.10721,-1.4545 c -0.0809,-1.2407 -0.16663,-2.4815 -0.29286,-3.7182 a 102.24493,102.24493 0 0 0 -0.2355,-1.9104 c -0.13131,-1.0828 -0.26131,-2.1659 -0.42722,-3.2442 a 102.24493,102.24493 0 0 0 -0.36458,-2.0984 c -0.17607,-1.0038 -0.3512,-2.0075 -0.55705,-3.0056 a 102.24493,102.24493 0 0 0 -0.48005,-2.1406 c -0.2239,-0.9796 -0.4508,-1.9585 -0.70349,-2.9309 a 102.24493,102.24493 0 0 0 -0.59931,-2.1633 c -0.26786,-0.9446 -0.54138,-1.8873 -0.83632,-2.8238 a 102.24493,102.24493 0 0 0 -0.71556,-2.1663 c -0.31352,-0.9233 -0.63684,-1.8432 -0.97673,-2.7573 a 102.24493,102.24493 0 0 0 -0.83934,-2.1768 c -0.35153,-0.8829 -0.71542,-1.7608 -1.09145,-2.6336 a 102.24493,102.24493 0 0 0 -0.94276,-2.127 c -0.40195,-0.8776 -0.81954,-1.748 -1.24619,-2.6139 a 102.24493,102.24493 0 0 0 -1.04842,-2.0825 c -0.43439,-0.8335 -0.88794,-1.6562 -1.34507,-2.4773 a 102.24493,102.24493 0 0 0 -1.1858,-2.0946 c -0.47425,-0.806 -0.9697,-1.5988 -1.46584,-2.3912 a 102.24493,102.24493 0 0 0 -1.25449,-1.9814 c -0.16303,-0.2342 -0.32532,-0.4693 -0.48534,-0.7057 -1.93443,-0.3237 -3.86544,-0.6725 -5.81429,-0.896 -0.0102,0 -0.0177,0 -0.0279,0 -3.90749,-0.431 -7.78973,-0.6585 -11.63686,-0.6937 z m -118.92296,38.5827 c -1.43451,0.01 -2.86763,0.047 -4.29862,0.1103 -15.92243,0.7087 -31.49191,4.9587 -45.836455,12.1305 -0.0809,0.8231 -0.16061,1.6459 -0.24155,2.469 a 102.24493,102.24493 0 0 0 -0.32305,4.5107 c -0.0102,0.2549 -0.0397,0.5087 -0.0453,0.7639 a 102.24493,102.24493 0 0 0 3.84197,26.5103 c 11.191525,-20.4755 28.542865,-36.6361 49.221005,-46.444 -0.77256,-0.01 -1.54611,-0.056 -2.31801,-0.051 z" /><path
         id="path38-7-83"
         style="color:#000000;fill:#ffb380;stroke-width:1.46064;-inkscape-stroke:none"
         d="m 189.19543,535.99005 c -39.73541,0.095 -74.91622,24.9392 -88.65442,62.0316 0.0483,0.1129 0.0941,0.2269 0.14271,0.3397 2.41651,4.7258 5.18736,9.2622 8.30741,13.5563 3.1482,4.3334 6.6313,8.4139 10.41861,12.2015 3.78756,3.7873 7.86806,7.2704 12.20146,10.4186 4.33327,3.1485 8.90692,5.9526 13.67938,8.3844 4.77237,2.4316 9.72892,4.4837 14.82291,6.1389 5.09417,1.655 10.30926,2.9083 15.59961,3.7461 5.29033,0.8379 10.63958,1.2582 15.99589,1.2582 5.35627,0 10.70478,-0.4203 15.99512,-1.2582 5.29036,-0.8378 10.50545,-2.0911 15.59961,-3.7461 5.09396,-1.6552 10.05056,-3.7073 14.82291,-6.1389 4.77245,-2.4318 9.3461,-5.2359 13.67937,-8.3844 4.3334,-3.1482 8.41391,-6.6313 12.20147,-10.4186 3.77706,-3.777 7.24839,-7.8475 10.38992,-12.1675 1.97242,-2.7952 3.67575,-5.7631 5.35762,-8.7407 -12.17927,-39.7923 -48.71287,-67.2041 -90.55954,-67.2209 z" /><ellipse
         style="fill:#cccccc;fill-opacity:1;stroke:none;stroke-width:0.15193;stroke-opacity:1"
         id="path2-7-8-8-27-2-0-4-5-12"
         cy="549.71692"
         cx="190.51546"
         rx="41.125423"
         ry="39.287239" /><path
         id="path3-8-2-1-8-7-4-9"
         style="fill:#5aa8ff;fill-opacity:1;stroke:none;stroke-width:0.386461;stroke-opacity:1"
         d="m 190.65737,503.61975 a 48.201179,48.201179 0 0 0 -48.20126,48.2013 48.201179,48.201179 0 0 0 48.20126,48.2013 48.201179,48.201179 0 0 0 48.20126,-48.2013 48.201179,48.201179 0 0 0 -48.20126,-48.2013 z m 0,11.6852 a 36.516045,36.516045 0 0 1 36.51609,36.5161 36.516045,36.516045 0 0 1 -36.51609,36.5161 36.516045,36.516045 0 0 1 -36.51608,-36.5161 36.516045,36.516045 0 0 1 36.51608,-36.5161 z" /><path
         id="path2-4-2-27-2-7-3-4-8"
         style="fill:#041546;fill-opacity:1;stroke:none;stroke-width:0.386461;stroke-opacity:1"
         d="m 190.65748,427.66705 c -32.7612,0.1181 -64.14801,13.1804 -87.31991,36.3402 l -3.355875,3.3559 c -21.42929,22.9119 -33.39049,53.087 -33.47874,84.4584 3e-5,68.5685 55.586025,124.1545 124.154525,124.1545 68.5685,0 124.15451,-55.586 124.15453,-124.1545 -2e-5,-68.5685 -55.58603,-124.1545 -124.15453,-124.1545 z m 0,14.6063 c 60.50173,-10e-5 109.5483,49.0465 109.54824,109.5482 -3.5e-4,60.5014 -49.0468,109.5476 -109.54824,109.5475 -60.50143,10e-5 -109.547875,-49.0461 -109.548235,-109.5475 0.10326,-27.276 8.91781,-52.072 27.354985,-72.1732 l 42.44736,44.2121 c -7.52188,11.4829 -11.91013,25.2035 -11.91011,39.9557 -5e-5,40.3345 32.69766,73.0323 73.03216,73.0322 40.33448,10e-5 73.03221,-32.6977 73.03216,-73.0322 5e-5,-40.3344 -32.69768,-73.0322 -73.03216,-73.0321 -20.22927,0 -38.53522,8.2271 -51.76092,21.515 l -44.5578,-40.306 c 20.42972,-19.9552 46.38414,-29.6823 74.94256,-29.7197 z m 21.37616,70.4205 c 11.85826,0.013 21.88249,2.688 31.02711,10.2374 l -42.27072,14.0666 -5.24214,7.4636 a 8.8368832,8.8368832 0 0 0 -4.89041,-1.4772 8.8368832,8.8368832 0 0 0 -2.40784,0.3397 l -0.12079,-0.1872 -2.88487,-8.2493 -8.68934,-7.8598 c 9.19458,-8.8692 21.69495,-14.334 35.47897,-14.3338 z m 38.25364,17.3545 c 9.129,9.4634 12.80082,20.6191 12.86872,33.7678 -6e-5,28.2341 -22.88834,51.1223 -51.12236,51.1224 -28.23432,4e-4 -51.12306,-22.888 -51.12312,-51.1224 1e-5,-8.4959 2.08464,-16.5008 5.75164,-23.5507 l 6.68004,6.9578 8.29534,2.5362 0.38571,0.2883 a 8.8368832,8.8368832 0 0 0 -0.20304,1.773 8.8368832,8.8368832 0 0 0 8.83727,8.8373 8.8368832,8.8368832 0 0 0 8.79578,-8.2696 l 1.45451,-0.4152 8.24703,-0.013 39.79497,-21.1233 z" /></g></g></svg>
